<?xml version="1.0" encoding="UTF-8"?>
<svg xmlns="http://www.w3.org/2000/svg" xmlns:xlink="http://www.w3.org/1999/xlink" width="50pt" height="49pt" viewBox="0 0 50 49" version="1.1">
<g id="surface1">
<path style=" stroke:none;fill-rule:nonzero;fill:rgb(0%,0%,0%);fill-opacity:1;" d="M 20.617188 0.914062 C 20.625 0.941406 20.757812 1.207031 20.910156 1.507812 C 21.511719 2.707031 21.699219 3.394531 21.742188 4.589844 C 21.808594 6.382812 21.421875 7.679688 20.230469 9.667969 C 19.691406 10.574219 19.484375 11 19.226562 11.75 C 18.601562 13.585938 18.558594 14.988281 19.078125 16.34375 C 19.195312 16.648438 19.464844 17.101562 19.542969 17.125 C 19.582031 17.140625 19.605469 16.988281 19.617188 16.660156 C 19.648438 15.992188 19.929688 14.816406 20.261719 13.953125 C 20.503906 13.3125 21.589844 11.128906 22.003906 10.421875 C 22.320312 9.898438 22.460938 9.546875 22.710938 8.699219 C 23.078125 7.460938 23.109375 7.238281 23.117188 6.132812 C 23.117188 5.09375 23.082031 4.878906 22.796875 3.980469 C 22.535156 3.164062 22.066406 2.371094 21.4375 1.675781 C 21.117188 1.324219 20.578125 0.824219 20.617188 0.914062 Z M 20.617188 0.914062 "/>
<path style=" stroke:none;fill-rule:nonzero;fill:rgb(0%,0%,0%);fill-opacity:1;" d="M 22.566406 10.367188 C 22.566406 10.410156 22.632812 10.664062 22.71875 10.925781 C 22.84375 11.328125 22.871094 11.476562 22.871094 11.871094 C 22.871094 12.160156 22.839844 12.457031 22.792969 12.644531 C 22.652344 13.152344 22.148438 14.492188 21.78125 15.3125 C 21.257812 16.476562 21.105469 16.871094 20.941406 17.511719 C 20.800781 18.046875 20.789062 18.167969 20.789062 18.847656 C 20.78125 19.699219 20.839844 19.996094 21.117188 20.511719 C 21.277344 20.808594 21.878906 21.492188 21.980469 21.492188 C 22.011719 21.492188 22.007812 21.417969 21.960938 21.269531 C 21.890625 21.03125 21.902344 20.722656 22.023438 19.949219 C 22.160156 19.085938 22.371094 18.460938 23.003906 17.027344 C 23.375 16.191406 23.601562 15.542969 23.667969 15.117188 C 23.703125 14.929688 23.730469 14.320312 23.730469 13.765625 C 23.734375 12.769531 23.734375 12.753906 23.578125 12.175781 C 23.488281 11.851562 23.359375 11.464844 23.28125 11.308594 C 23.117188 10.960938 22.804688 10.5 22.671875 10.375 C 22.578125 10.296875 22.566406 10.296875 22.566406 10.367188 Z M 22.566406 10.367188 "/>
<path style=" stroke:none;fill-rule:nonzero;fill:rgb(0%,0%,0%);fill-opacity:1;" d="M 13.121094 20.386719 L 13.121094 20.691406 L 13.398438 20.722656 C 14.25 20.816406 14.496094 21.050781 14.539062 21.820312 C 14.585938 22.644531 14.140625 26.652344 13.816406 28.378906 C 13.21875 31.519531 12.707031 32.683594 11.703125 33.140625 L 11.449219 33.253906 L 11.449219 33.808594 L 16.460938 33.808594 L 16.460938 33.214844 L 16.253906 33.1875 C 15.996094 33.148438 15.648438 32.960938 15.460938 32.753906 C 15.261719 32.527344 15.042969 32.058594 14.9375 31.605469 C 14.714844 30.667969 14.699219 29.449219 14.886719 27.113281 C 14.992188 25.824219 15.34375 22.242188 15.371094 22.21875 C 15.382812 22.210938 16.503906 24.929688 17.863281 28.265625 L 20.339844 34.328125 L 20.625 34.316406 L 20.910156 34.300781 L 22.378906 30.90625 C 23.425781 28.496094 24.046875 27.132812 24.523438 26.199219 C 25.21875 24.835938 26.140625 23.160156 26.171875 23.195312 C 26.183594 23.203125 26.386719 25.152344 26.621094 27.515625 C 27.003906 31.332031 27.046875 31.855469 27.003906 32.140625 C 26.890625 32.878906 26.625 33.121094 25.878906 33.191406 L 25.546875 33.222656 L 25.535156 33.515625 L 25.519531 33.808594 L 29.160156 33.808594 C 32.128906 33.808594 32.910156 33.796875 33.386719 33.738281 C 34.511719 33.601562 35.371094 33.351562 36.289062 32.894531 C 38.476562 31.808594 39.996094 29.890625 40.496094 27.582031 C 40.667969 26.785156 40.710938 26.269531 40.683594 25.269531 C 40.660156 24.390625 40.644531 24.28125 40.492188 23.695312 C 40.019531 21.878906 38.855469 20.761719 37 20.339844 C 35.957031 20.109375 35.5625 20.089844 30.574219 20.089844 L 25.964844 20.089844 L 25.832031 20.472656 C 25.585938 21.207031 25.101562 22.472656 24.597656 23.679688 C 23.746094 25.753906 21.386719 31.191406 21.351562 31.191406 C 21.332031 31.191406 20.292969 28.699219 19.042969 25.652344 L 16.765625 20.113281 L 14.941406 20.097656 L 13.121094 20.089844 Z M 34.078125 20.746094 C 35.996094 20.960938 37.367188 21.960938 38.019531 23.625 C 38.429688 24.664062 38.660156 26.339844 38.554688 27.515625 C 38.324219 30.019531 37.242188 31.824219 35.476562 32.613281 C 34.832031 32.90625 34.378906 32.988281 33.46875 32.984375 C 32.363281 32.980469 31.792969 32.84375 30.617188 32.296875 L 30.105469 32.058594 L 30.113281 26.765625 L 30.128906 21.46875 L 30.367188 21.34375 C 30.898438 21.058594 31.722656 20.808594 32.394531 20.730469 C 32.738281 20.691406 33.671875 20.699219 34.078125 20.746094 Z M 34.078125 20.746094 "/>
<path style=" stroke:none;fill-rule:nonzero;fill:rgb(0%,0%,0%);fill-opacity:1;" d="M 37.011719 34.503906 C 36.332031 34.753906 36.308594 34.769531 36.308594 34.898438 C 36.308594 35.027344 36.316406 35.03125 36.464844 35.003906 C 36.546875 34.984375 36.65625 34.960938 36.699219 34.953125 C 36.742188 34.9375 36.824219 34.96875 36.875 35.023438 C 36.976562 35.121094 36.976562 35.167969 36.976562 37.027344 C 36.976562 38.195312 36.957031 39.003906 36.925781 39.109375 C 36.867188 39.316406 36.738281 39.417969 36.488281 39.460938 C 36.328125 39.484375 36.308594 39.503906 36.308594 39.621094 L 36.308594 39.757812 L 38.3125 39.757812 L 38.3125 39.617188 C 38.3125 39.488281 38.296875 39.476562 38.148438 39.476562 C 38.0625 39.476562 37.933594 39.433594 37.871094 39.382812 C 37.671875 39.230469 37.625 39.050781 37.65625 38.570312 C 37.707031 37.878906 38.015625 37.175781 38.429688 36.816406 C 38.769531 36.519531 39.179688 36.511719 39.308594 36.789062 C 39.339844 36.867188 39.359375 37.320312 39.359375 38.140625 C 39.359375 39.332031 39.355469 39.382812 39.265625 39.4375 C 39.207031 39.476562 39.167969 39.550781 39.167969 39.625 L 39.167969 39.757812 L 40.695312 39.757812 L 40.695312 39.617188 C 40.695312 39.535156 40.671875 39.476562 40.640625 39.476562 C 40.605469 39.476562 40.496094 39.453125 40.394531 39.425781 C 40.09375 39.34375 40.078125 39.246094 40.078125 37.871094 C 40.078125 36.492188 40.042969 36.320312 39.757812 36.140625 C 39.332031 35.882812 38.753906 36.09375 38.097656 36.742188 L 37.691406 37.136719 L 37.691406 35.855469 C 37.691406 34.769531 37.699219 34.5625 37.761719 34.511719 C 37.847656 34.441406 37.859375 34.230469 37.777344 34.234375 C 37.742188 34.234375 37.398438 34.355469 37.011719 34.503906 Z M 37.011719 34.503906 "/>
<path style=" stroke:none;fill-rule:nonzero;fill:rgb(0%,0%,0%);fill-opacity:1;" d="M 12.023438 36.238281 C 11.523438 36.441406 11.472656 36.472656 11.460938 36.589844 C 11.441406 36.722656 11.445312 36.722656 11.625 36.6875 C 11.859375 36.640625 11.976562 36.648438 12.042969 36.710938 C 12.105469 36.773438 12.148438 38.664062 12.09375 39.003906 C 12.054688 39.261719 11.910156 39.410156 11.652344 39.453125 C 11.46875 39.480469 11.449219 39.5 11.449219 39.621094 L 11.449219 39.757812 L 13.691406 39.757812 L 13.691406 39.625 C 13.691406 39.5 13.679688 39.492188 13.347656 39.441406 C 12.949219 39.382812 12.859375 39.300781 12.804688 38.972656 C 12.742188 38.546875 12.894531 37.707031 13.121094 37.269531 C 13.261719 37 13.488281 36.773438 13.679688 36.707031 C 13.925781 36.628906 14.078125 36.753906 14.164062 37.101562 L 14.226562 37.367188 L 14.597656 37.367188 L 14.597656 36.742188 C 14.597656 36.210938 14.589844 36.109375 14.523438 36.085938 C 14.378906 36.027344 14.015625 36.058594 13.851562 36.136719 C 13.636719 36.234375 13.175781 36.648438 12.996094 36.90625 L 12.859375 37.101562 L 12.832031 36.566406 C 12.808594 36.039062 12.808594 36.035156 12.691406 36.023438 C 12.625 36.019531 12.324219 36.117188 12.023438 36.238281 Z M 12.023438 36.238281 "/>
<path style=" stroke:none;fill-rule:nonzero;fill:rgb(0%,0%,0%);fill-opacity:1;" d="M 19.8125 36.058594 C 19.542969 36.113281 19.183594 36.273438 19.042969 36.398438 C 18.886719 36.539062 18.75 36.839844 18.75 37.039062 C 18.75 37.128906 18.796875 37.289062 18.859375 37.390625 C 18.964844 37.574219 19.09375 37.667969 20.058594 38.265625 C 20.339844 38.445312 20.433594 38.535156 20.515625 38.703125 C 20.605469 38.886719 20.609375 38.9375 20.5625 39.078125 C 20.445312 39.425781 20 39.605469 19.628906 39.453125 C 19.289062 39.3125 19.121094 39.101562 19.03125 38.679688 C 18.980469 38.441406 18.980469 38.441406 18.808594 38.453125 L 18.628906 38.46875 L 18.617188 39.035156 L 18.601562 39.601562 L 18.734375 39.65625 C 19.546875 39.976562 20.402344 39.867188 20.890625 39.386719 C 21.273438 39.011719 21.339844 38.566406 21.078125 38.1875 C 20.953125 38.015625 20.789062 37.886719 20.300781 37.59375 C 19.585938 37.160156 19.488281 37.082031 19.417969 36.871094 C 19.375 36.75 19.378906 36.6875 19.4375 36.582031 C 19.714844 36.050781 20.605469 36.515625 20.609375 37.191406 C 20.609375 37.253906 20.652344 37.273438 20.800781 37.273438 L 20.996094 37.273438 L 20.984375 36.726562 L 20.96875 36.179688 L 20.777344 36.121094 C 20.492188 36.042969 20.042969 36.011719 19.8125 36.058594 Z M 19.8125 36.058594 "/>
<path style=" stroke:none;fill-rule:nonzero;fill:rgb(0%,0%,0%);fill-opacity:1;" d="M 27.148438 36.058594 C 26.785156 36.113281 26.472656 36.222656 26.035156 36.441406 L 25.664062 36.632812 L 25.675781 37.128906 L 25.691406 37.625 L 25.863281 37.640625 C 26.035156 37.652344 26.039062 37.648438 26.09375 37.429688 C 26.230469 36.871094 26.53125 36.5 26.945312 36.378906 C 27.105469 36.339844 27.171875 36.339844 27.289062 36.382812 C 27.507812 36.472656 27.578125 36.601562 27.578125 36.921875 L 27.578125 37.203125 L 27.113281 37.433594 C 25.800781 38.066406 25.230469 38.605469 25.304688 39.136719 C 25.382812 39.671875 25.824219 39.953125 26.371094 39.808594 C 26.582031 39.75 27.117188 39.417969 27.363281 39.191406 C 27.441406 39.113281 27.523438 39.054688 27.539062 39.054688 C 27.550781 39.054688 27.578125 39.195312 27.585938 39.363281 C 27.601562 39.621094 27.625 39.691406 27.714844 39.761719 C 27.9375 39.9375 28.332031 39.839844 28.792969 39.488281 C 29.007812 39.324219 29.03125 39.289062 29.046875 39.101562 L 29.058594 38.894531 L 28.902344 39.019531 C 28.679688 39.203125 28.457031 39.308594 28.367188 39.273438 C 28.300781 39.246094 28.292969 39.082031 28.292969 37.882812 C 28.292969 36.382812 28.273438 36.261719 28.015625 36.132812 C 27.832031 36.039062 27.472656 36.011719 27.148438 36.058594 Z M 27.601562 37.871094 C 27.515625 38.507812 27.25 38.996094 26.902344 39.171875 C 26.730469 39.261719 26.417969 39.261719 26.242188 39.171875 C 26.058594 39.078125 25.972656 38.832031 26.050781 38.613281 C 26.105469 38.4375 26.46875 38.078125 26.71875 37.953125 C 26.953125 37.835938 27.449219 37.652344 27.542969 37.648438 C 27.621094 37.648438 27.625 37.675781 27.601562 37.871094 Z M 27.601562 37.871094 "/>
<path style=" stroke:none;fill-rule:nonzero;fill:rgb(0%,0%,0%);fill-opacity:1;" d="M 29.769531 36.238281 C 29.28125 36.4375 29.222656 36.472656 29.207031 36.585938 C 29.1875 36.726562 29.21875 36.730469 29.496094 36.671875 C 29.625 36.640625 29.695312 36.648438 29.757812 36.6875 C 29.832031 36.746094 29.84375 36.863281 29.855469 37.875 C 29.871094 39.160156 29.847656 39.289062 29.5625 39.40625 C 29.464844 39.441406 29.347656 39.476562 29.292969 39.476562 C 29.21875 39.476562 29.199219 39.507812 29.199219 39.617188 L 29.199219 39.757812 L 31.441406 39.757812 L 31.441406 39.621094 C 31.441406 39.492188 31.425781 39.484375 31.179688 39.457031 C 30.796875 39.414062 30.691406 39.347656 30.601562 39.113281 C 30.410156 38.632812 30.695312 37.386719 31.101562 36.9375 C 31.46875 36.523438 31.855469 36.632812 31.941406 37.167969 C 31.976562 37.363281 31.980469 37.367188 32.160156 37.367188 L 32.347656 37.367188 L 32.347656 36.742188 C 32.347656 36.210938 32.335938 36.109375 32.269531 36.085938 C 32.128906 36.027344 31.765625 36.058594 31.59375 36.136719 C 31.417969 36.214844 30.882812 36.710938 30.691406 36.96875 L 30.585938 37.109375 L 30.585938 36.558594 L 30.582031 36.011719 L 30.453125 36.015625 C 30.375 36.015625 30.070312 36.117188 29.769531 36.238281 Z M 29.769531 36.238281 "/>
<path style=" stroke:none;fill-rule:nonzero;fill:rgb(0%,0%,0%);fill-opacity:1;" d="M 34.285156 36.058594 C 33.929688 36.117188 33.46875 36.367188 33.1875 36.640625 C 32.5625 37.253906 32.371094 38.195312 32.71875 38.933594 C 32.90625 39.320312 33.097656 39.523438 33.429688 39.691406 C 33.671875 39.808594 33.757812 39.828125 34.113281 39.828125 C 34.46875 39.828125 34.554688 39.808594 34.828125 39.675781 C 35.019531 39.582031 35.292969 39.390625 35.535156 39.171875 C 35.910156 38.824219 35.925781 38.804688 35.925781 38.605469 L 35.925781 38.394531 L 35.582031 38.679688 C 34.9375 39.207031 34.476562 39.347656 34.007812 39.152344 C 33.378906 38.890625 33.0625 37.960938 33.339844 37.203125 C 33.46875 36.859375 33.5625 36.726562 33.820312 36.546875 C 34.007812 36.421875 34.058594 36.40625 34.394531 36.40625 C 34.71875 36.40625 34.789062 36.421875 34.960938 36.539062 C 35.171875 36.675781 35.324219 36.914062 35.375 37.195312 C 35.410156 37.363281 35.414062 37.367188 35.621094 37.367188 L 35.832031 37.367188 L 35.832031 36.296875 L 35.457031 36.179688 C 35.015625 36.042969 34.609375 36 34.285156 36.058594 Z M 34.285156 36.058594 "/>
<path style=" stroke:none;fill-rule:nonzero;fill:rgb(0%,0%,0%);fill-opacity:1;" d="M 16.121094 36.144531 C 15.875 36.238281 15.535156 36.460938 15.375 36.625 C 15.199219 36.816406 14.9375 37.277344 14.855469 37.550781 C 14.804688 37.734375 14.785156 37.929688 14.800781 38.214844 C 14.8125 38.5625 14.84375 38.664062 14.984375 38.9375 C 15.164062 39.277344 15.425781 39.546875 15.753906 39.71875 C 15.925781 39.808594 16.027344 39.828125 16.386719 39.828125 C 16.765625 39.820312 16.851562 39.808594 17.082031 39.691406 C 17.410156 39.523438 17.816406 39.21875 18.046875 38.964844 C 18.191406 38.808594 18.226562 38.734375 18.226562 38.582031 L 18.226562 38.390625 L 17.929688 38.65625 C 17.292969 39.214844 16.6875 39.355469 16.167969 39.066406 C 15.75 38.832031 15.460938 38.3125 15.445312 37.753906 L 15.433594 37.53125 L 18.097656 37.507812 L 18.0625 37.246094 C 18.003906 36.757812 17.722656 36.367188 17.292969 36.167969 C 16.996094 36.027344 16.449219 36.019531 16.121094 36.144531 Z M 16.878906 36.511719 C 17.042969 36.628906 17.25 36.933594 17.289062 37.097656 L 17.320312 37.226562 L 15.496094 37.226562 L 15.53125 37.097656 C 15.589844 36.851562 15.957031 36.476562 16.199219 36.417969 C 16.382812 36.367188 16.75 36.417969 16.878906 36.511719 Z M 16.878906 36.511719 "/>
<path style=" stroke:none;fill-rule:nonzero;fill:rgb(0%,0%,0%);fill-opacity:1;" d="M 22.875 36.144531 C 22.167969 36.425781 21.699219 37.046875 21.566406 37.859375 C 21.472656 38.402344 21.65625 38.945312 22.066406 39.378906 C 22.390625 39.71875 22.652344 39.828125 23.140625 39.828125 C 23.613281 39.828125 23.90625 39.714844 24.375 39.363281 C 24.824219 39.027344 25 38.796875 25 38.558594 L 25 38.355469 L 24.78125 38.566406 C 24.222656 39.097656 23.730469 39.292969 23.238281 39.191406 C 22.902344 39.121094 22.625 38.902344 22.4375 38.5625 C 22.285156 38.277344 22.148438 37.71875 22.199219 37.582031 C 22.226562 37.519531 22.386719 37.507812 23.550781 37.507812 L 24.871094 37.507812 L 24.84375 37.273438 C 24.785156 36.789062 24.484375 36.355469 24.070312 36.167969 C 23.773438 36.035156 23.183594 36.019531 22.875 36.144531 Z M 23.6875 36.542969 C 23.855469 36.671875 23.980469 36.859375 24.050781 37.097656 L 24.089844 37.226562 L 22.269531 37.226562 L 22.304688 37.097656 C 22.378906 36.800781 22.675781 36.496094 22.976562 36.417969 C 23.1875 36.355469 23.515625 36.417969 23.6875 36.542969 Z M 23.6875 36.542969 "/>
<path style=" stroke:none;fill-rule:nonzero;fill:rgb(0%,0%,0%);fill-opacity:1;" d="M 22.246094 41.664062 C 21.59375 41.914062 21.566406 41.933594 21.566406 42.054688 C 21.566406 42.1875 21.570312 42.1875 21.8125 42.175781 C 22.03125 42.167969 22.066406 42.183594 22.125 42.285156 C 22.199219 42.433594 22.214844 46.003906 22.136719 46.273438 C 22.070312 46.503906 21.980469 46.589844 21.75 46.621094 C 21.582031 46.648438 21.566406 46.667969 21.566406 46.785156 L 21.566406 46.921875 L 23.472656 46.921875 L 23.472656 46.78125 C 23.472656 46.671875 23.449219 46.640625 23.382812 46.640625 C 23.335938 46.640625 23.226562 46.617188 23.140625 46.589844 C 22.859375 46.488281 22.851562 46.460938 22.851562 44.027344 C 22.851562 41.902344 22.859375 41.824219 22.949219 41.710938 C 23.054688 41.578125 23.078125 41.394531 22.988281 41.398438 C 22.953125 41.398438 22.621094 41.523438 22.246094 41.664062 Z M 22.246094 41.664062 "/>
<path style=" stroke:none;fill-rule:nonzero;fill:rgb(0%,0%,0%);fill-opacity:1;" d="M 27.910156 41.671875 C 27.28125 41.933594 27.265625 41.949219 27.25 42.097656 C 27.238281 42.230469 27.246094 42.246094 27.324219 42.21875 C 27.371094 42.199219 27.476562 42.171875 27.5625 42.160156 C 27.679688 42.140625 27.722656 42.152344 27.792969 42.253906 C 27.863281 42.359375 27.867188 42.574219 27.851562 44.496094 C 27.839844 46.316406 27.824219 46.640625 27.757812 46.78125 C 27.59375 47.136719 27.59375 47.15625 27.808594 47.15625 C 27.917969 47.15625 28.003906 47.136719 28.003906 47.109375 C 28.003906 46.988281 28.289062 46.929688 28.984375 46.910156 C 29.628906 46.894531 29.726562 46.878906 29.960938 46.769531 C 30.734375 46.417969 31.265625 45.558594 31.269531 44.648438 C 31.273438 43.777344 30.835938 43.222656 30.148438 43.222656 C 29.757812 43.222656 29.445312 43.390625 28.945312 43.882812 L 28.527344 44.296875 L 28.542969 43.019531 C 28.558594 42.324219 28.582031 41.667969 28.601562 41.570312 C 28.621094 41.476562 28.617188 41.394531 28.597656 41.398438 C 28.574219 41.40625 28.261719 41.527344 27.910156 41.671875 Z M 30.152344 43.933594 C 30.535156 44.1875 30.695312 44.96875 30.511719 45.636719 C 30.34375 46.25 29.976562 46.53125 29.398438 46.484375 C 29.222656 46.476562 28.957031 46.414062 28.808594 46.359375 L 28.535156 46.257812 L 28.5 45.953125 C 28.445312 45.417969 28.691406 44.609375 29.03125 44.21875 C 29.355469 43.847656 29.835938 43.726562 30.152344 43.933594 Z M 30.152344 43.933594 "/>
<path style=" stroke:none;fill-rule:nonzero;fill:rgb(0%,0%,0%);fill-opacity:1;" d="M 25.023438 43.355469 C 24.8125 43.425781 24.519531 43.554688 24.371094 43.636719 L 24.09375 43.792969 L 24.09375 44.8125 L 24.28125 44.8125 C 24.460938 44.8125 24.464844 44.808594 24.496094 44.613281 C 24.59375 43.964844 25.171875 43.414062 25.605469 43.554688 C 25.8125 43.621094 25.90625 43.800781 25.90625 44.121094 L 25.90625 44.367188 L 25.488281 44.578125 C 24.253906 45.203125 23.648438 45.804688 23.730469 46.320312 C 23.828125 46.90625 24.339844 47.167969 24.894531 46.921875 C 25.109375 46.828125 25.578125 46.484375 25.734375 46.316406 C 25.789062 46.265625 25.84375 46.21875 25.867188 46.21875 C 25.886719 46.21875 25.90625 46.347656 25.90625 46.511719 C 25.90625 46.886719 26.007812 47.015625 26.292969 47.015625 C 26.515625 47.015625 26.695312 46.929688 27.042969 46.667969 C 27.269531 46.488281 27.289062 46.460938 27.289062 46.273438 L 27.289062 46.070312 L 27.089844 46.242188 C 26.855469 46.433594 26.679688 46.496094 26.617188 46.402344 C 26.59375 46.363281 26.574219 45.726562 26.574219 44.988281 C 26.574219 43.507812 26.558594 43.433594 26.289062 43.292969 C 26.054688 43.175781 25.472656 43.203125 25.023438 43.355469 Z M 25.921875 45.035156 C 25.90625 45.160156 25.855469 45.402344 25.800781 45.582031 C 25.726562 45.847656 25.664062 45.945312 25.457031 46.148438 C 25.179688 46.417969 24.984375 46.484375 24.734375 46.382812 C 24.542969 46.304688 24.425781 46.144531 24.425781 45.945312 C 24.425781 45.554688 24.867188 45.160156 25.597656 44.902344 C 25.945312 44.78125 25.945312 44.785156 25.921875 45.035156 Z M 25.921875 45.035156 "/>
</g>
</svg>
